<?xml version="1.0" standalone="no"?>
<!DOCTYPE svg PUBLIC "-//W3C//DTD SVG 20010904//EN"
 "http://www.w3.org/TR/2001/REC-SVG-20010904/DTD/svg10.dtd">
<svg version="1.0" xmlns="http://www.w3.org/2000/svg"
 width="1000.000000pt" height="1000.000000pt" viewBox="0 0 1000.000000 1000.000000"
 preserveAspectRatio="xMidYMid meet">
<metadata>
Created by potrace 1.14, written by Peter Selinger 2001-2017
</metadata>
<g transform="translate(0.000000,1000.000000) scale(0.100000,-0.100000)"
fill="#000000" stroke="none">
<path d="M360 7250 c-5 -3 -8 -1049 -8 -2325 l0 -2320 456 0 c252 0 462 3 467
7 7 4 10 318 10 912 -1 595 2 903 9 896 5 -5 11 -15 12 -22 2 -14 91 -302 101
-328 4 -8 5 -19 4 -24 -1 -4 2 -13 7 -20 5 -6 15 -33 22 -61 7 -27 17 -56 23
-62 5 -7 7 -13 3 -13 -3 0 1 -17 8 -37 8 -21 38 -112 66 -203 28 -91 61 -194
73 -230 12 -36 22 -67 22 -70 1 -3 5 -16 9 -30 4 -14 35 -110 68 -215 32 -104
61 -196 63 -203 3 -7 5 -16 6 -20 1 -4 6 -18 11 -32 5 -14 11 -32 13 -40 2 -8
13 -42 24 -75 10 -33 21 -69 23 -80 8 -53 -38 -50 918 -50 l887 0 0 2325 0
2325 -476 -1 c-262 -1 -478 -2 -481 -3 -3 0 -5 -160 -5 -353 l0 -353 -470 -1
c-259 -1 -475 -2 -481 -3 -10 -1 -17 -13 -29 -56 -4 -12 -204 -614 -211 -635
-3 -8 -5 -15 -4 -15 1 0 -10 -31 -24 -69 -14 -38 -28 -78 -31 -90 -7 -30 -150
-455 -156 -460 -2 -2 -4 452 -4 1011 0 666 -3 1017 -10 1021 -12 8 -903 10
-915 2z m2339 -2436 c0 -928 -2 -1684 -5 -1681 -3 3 -6 11 -8 19 -1 7 -4 18
-8 23 -3 6 -12 30 -19 55 -7 25 -13 47 -14 50 -1 3 -7 18 -13 33 -7 16 -12 34
-12 42 0 8 -5 17 -10 20 -6 4 -8 10 -5 15 3 5 1 11 -5 15 -5 3 -10 16 -10 29
0 12 -3 26 -7 30 -5 4 -8 11 -9 14 -1 15 -28 98 -34 107 -4 6 -11 24 -15 40
-5 17 -10 35 -11 40 -6 18 -171 500 -177 515 -5 14 -30 89 -32 100 -1 3 -4 12
-8 20 -3 8 -45 131 -92 274 l-87 258 15 47 c18 53 76 221 177 511 39 113 73
210 74 215 2 6 6 17 9 25 9 24 86 245 122 355 19 55 55 159 80 230 25 72 48
137 50 145 7 27 49 140 51 140 2 0 3 -759 3 -1686z"/>
<path d="M8597 6568 c-133 -35 -219 -85 -312 -184 -33 -35 -71 -85 -85 -111
-13 -26 -28 -51 -33 -54 -5 -3 -8 -10 -8 -15 1 -14 -22 -74 -29 -74 -3 0 -4
92 -2 205 1 113 -1 206 -5 206 -4 1 -216 2 -470 3 l-463 1 -1 -40 c0 -22 -1
-907 -2 -1967 -1 -1278 1 -1929 8 -1931 6 -2 217 -3 470 -2 l460 0 5 1525 c3
839 6 1526 8 1527 53 46 260 111 402 127 14 2 44 7 68 11 23 4 77 8 120 10
l77 4 1 391 1 391 -71 -3 c-39 -1 -102 -10 -139 -20z"/>
<path d="M3679 6539 c-5 -3 -8 -12 -5 -20 3 -8 8 -39 11 -69 3 -30 8 -71 11
-90 2 -19 6 -55 9 -80 2 -25 7 -61 10 -80 2 -19 7 -57 10 -85 3 -27 13 -104
21 -170 8 -66 17 -133 18 -150 2 -16 7 -59 11 -95 5 -36 9 -77 9 -92 1 -16 5
-28 9 -28 5 0 6 -4 3 -8 -3 -5 -1 -37 4 -73 5 -35 11 -86 14 -114 3 -27 7 -66
10 -85 5 -35 14 -113 21 -180 3 -19 7 -51 9 -70 3 -19 8 -57 11 -85 3 -27 8
-66 10 -85 3 -19 8 -64 11 -100 3 -36 7 -67 9 -70 2 -3 6 -37 10 -75 4 -39 8
-81 11 -95 2 -14 7 -47 9 -75 3 -27 8 -61 11 -74 3 -13 7 -51 10 -85 2 -34 7
-77 10 -96 5 -36 9 -64 18 -140 3 -25 8 -65 11 -90 4 -25 8 -65 10 -90 2 -25
4 -45 5 -45 1 0 3 -18 6 -40 2 -22 8 -71 13 -110 5 -38 10 -77 10 -85 0 -17 7
-70 14 -115 7 -37 15 -101 22 -180 4 -33 8 -73 11 -90 3 -16 7 -48 9 -70 6
-54 25 -212 31 -255 7 -50 12 -87 18 -150 11 -104 16 -134 25 -140 5 -3 240
-5 523 -5 506 0 513 0 515 20 1 11 4 38 7 60 3 22 8 58 10 80 3 22 8 65 11 95
4 31 8 73 10 95 2 22 4 40 5 40 0 0 3 25 5 55 3 30 7 69 9 85 3 17 7 57 11 90
3 33 8 80 11 105 4 25 7 56 9 70 6 61 18 168 21 195 2 17 6 57 9 90 2 33 8 78
11 100 3 22 7 58 9 80 4 61 16 158 20 175 2 8 7 48 10 89 4 41 8 83 10 92 2
10 7 49 10 86 4 37 8 79 10 93 1 14 6 54 9 90 4 36 9 76 11 90 3 22 11 103 20
193 3 30 14 49 16 26 0 -8 2 -27 4 -44 2 -16 6 -55 10 -85 3 -30 8 -66 10 -80
3 -14 7 -52 11 -85 3 -33 8 -71 10 -85 3 -14 7 -45 9 -70 3 -25 7 -61 10 -80
3 -19 8 -55 11 -80 2 -25 7 -58 9 -75 3 -16 7 -57 10 -90 3 -33 7 -67 10 -75
2 -8 7 -40 10 -70 5 -50 16 -136 30 -245 3 -22 8 -62 10 -90 3 -27 7 -59 10
-70 2 -11 7 -47 10 -80 4 -33 8 -71 11 -85 2 -14 6 -52 10 -85 3 -33 8 -71 10
-85 3 -14 7 -45 9 -70 3 -25 7 -58 10 -75 2 -16 7 -52 10 -80 3 -27 11 -84 16
-125 6 -41 12 -97 15 -124 2 -28 7 -52 10 -55 8 -8 935 -7 940 1 2 3 6 30 9
60 2 29 6 64 9 78 2 14 7 50 11 80 4 30 9 66 10 80 2 14 7 50 10 80 4 30 8 66
10 80 1 14 6 45 9 70 8 59 14 105 21 160 3 25 8 61 11 80 2 19 6 53 9 75 2 22
6 54 9 70 3 17 8 57 11 90 3 33 9 74 12 90 3 17 7 46 9 65 1 19 5 51 8 71 7
37 13 82 21 161 2 25 7 59 9 75 3 15 8 53 12 83 9 82 12 101 19 150 3 25 8 65
10 90 2 25 5 45 5 45 2 0 7 28 14 85 3 30 8 71 11 90 3 19 7 53 9 75 4 36 11
91 22 165 2 14 6 50 9 80 3 30 8 66 11 80 2 14 7 48 10 75 2 28 7 60 9 72 3
12 8 46 10 75 3 29 7 64 10 78 2 14 7 54 10 90 4 36 9 74 11 85 2 11 7 44 10
74 3 30 7 62 9 71 2 8 6 40 10 70 7 63 9 72 24 195 21 165 23 180 27 200 2 11
6 45 9 75 3 30 7 66 10 80 2 14 7 52 11 85 3 33 8 68 10 79 2 10 6 41 9 70 l6
51 -440 0 c-241 0 -441 -2 -444 -5 -3 -3 -8 -36 -11 -75 -4 -38 -9 -81 -11
-95 -2 -14 -6 -51 -9 -82 -10 -96 -17 -161 -22 -208 -3 -25 -6 -63 -8 -85 -2
-22 -7 -69 -11 -104 -9 -79 -13 -122 -19 -186 -3 -27 -8 -75 -12 -105 -3 -30
-7 -71 -10 -90 -2 -19 -6 -62 -9 -95 -3 -33 -8 -76 -10 -95 -1 -19 -6 -64 -9
-100 -4 -36 -8 -76 -11 -90 -2 -14 -7 -56 -10 -95 -4 -38 -8 -86 -10 -105 -3
-19 -7 -60 -10 -90 -3 -30 -7 -75 -10 -100 -3 -25 -8 -68 -10 -95 -13 -150
-17 -181 -23 -187 -4 -4 -7 5 -8 20 -1 32 -12 127 -18 162 -2 14 -7 50 -11 80
-3 30 -8 69 -10 85 -8 56 -16 120 -20 150 -2 17 -6 51 -9 78 -3 26 -8 68 -11
95 -4 26 -8 58 -10 72 -2 14 -7 48 -10 75 -3 28 -7 66 -10 85 -3 19 -7 58 -11
85 -3 28 -8 61 -10 75 -2 14 -7 48 -10 75 -3 28 -7 64 -10 80 -3 17 -7 48 -8
70 -2 22 -5 40 -6 40 -1 0 -3 18 -5 40 -3 22 -6 54 -9 70 -2 17 -7 53 -10 80
-3 28 -8 64 -10 80 -13 99 -18 144 -21 175 -2 19 -6 51 -9 70 -20 130 -29 202
-28 223 0 9 -2 18 -6 18 -35 7 -815 2 -819 -5 -3 -4 -7 -20 -8 -35 -2 -14 -6
-55 -9 -91 -4 -36 -9 -76 -11 -90 -2 -14 -7 -59 -10 -100 -4 -41 -9 -88 -11
-105 -2 -16 -6 -55 -9 -85 -3 -30 -7 -71 -10 -90 -7 -49 -13 -102 -20 -190 -3
-41 -8 -86 -10 -100 -4 -30 -13 -104 -20 -180 -3 -30 -7 -71 -10 -90 -2 -19
-7 -59 -10 -87 -10 -104 -16 -159 -20 -193 -3 -19 -7 -64 -11 -100 -3 -36 -7
-78 -9 -95 -3 -16 -7 -59 -10 -95 -3 -36 -8 -76 -10 -90 -4 -28 -13 -119 -20
-199 -3 -30 -6 -56 -9 -58 -5 -5 -15 50 -21 117 -2 25 -6 62 -10 83 -7 54 -13
95 -19 157 -4 30 -9 71 -12 90 -2 19 -6 53 -9 75 -4 36 -8 73 -21 160 -2 17
-6 48 -8 70 -2 22 -7 56 -10 75 -2 19 -8 62 -12 95 -4 33 -8 71 -10 85 -1 14
-6 50 -9 80 -3 30 -8 64 -10 75 -3 11 -7 45 -10 75 -3 30 -7 66 -9 80 -3 14
-7 48 -10 75 -3 28 -8 65 -11 83 -2 19 -7 57 -9 85 -3 29 -8 63 -11 77 -2 14
-7 48 -9 75 -5 56 -14 123 -22 175 -6 34 -15 112 -18 157 -1 12 -5 26 -10 30
-9 9 -782 11 -797 2z"/>
<path d="M9225 3612 c-79 -5 -218 -54 -253 -89 -7 -7 -17 -13 -21 -13 -13 0
-104 -93 -133 -136 -28 -41 -81 -154 -73 -154 3 0 1 -9 -5 -19 -17 -32 -19
-183 -4 -257 33 -156 149 -302 297 -374 182 -88 386 -72 556 43 51 35 62 45
117 112 95 117 134 271 109 434 -14 94 -72 211 -140 283 -39 43 -130 108 -148
108 -10 0 -17 4 -17 8 0 14 -99 43 -160 48 -30 3 -62 6 -70 7 -8 1 -33 1 -55
-1z"/>
</g>
</svg>
