<svg xmlns="http://www.w3.org/2000/svg" xmlns:xlink="http://www.w3.org/1999/xlink" width="500" zoomAndPan="magnify" viewBox="0 0 375 262.499992" height="350" preserveAspectRatio="xMidYMid meet" version="1.0"><defs><g/><clipPath id="bd10fc27d1"><path d="M 327.078125 183.183594 L 368.429688 183.183594 L 368.429688 224.53125 L 327.078125 224.53125 Z M 327.078125 183.183594 " clip-rule="nonzero"/></clipPath><clipPath id="5fb125980d"><path d="M 347.753906 183.183594 C 336.332031 183.183594 327.078125 192.4375 327.078125 203.859375 C 327.078125 215.277344 336.332031 224.53125 347.753906 224.53125 C 359.171875 224.53125 368.429688 215.277344 368.429688 203.859375 C 368.429688 192.4375 359.171875 183.183594 347.753906 183.183594 Z M 347.753906 183.183594 " clip-rule="nonzero"/></clipPath></defs><g fill="#000000" fill-opacity="1"><g transform="translate(6.130069, 221.055904)"><g><path d="M 7.0625 0 L 7.0625 -174.390625 L 41.984375 -174.390625 L 41.984375 -96.890625 L 58.9375 -147.75 L 95.46875 -147.75 L 73.265625 -83.5625 L 101.53125 0 L 63.984375 0 L 41.984375 -69.640625 L 41.984375 0 Z M 7.0625 0 "/></g></g></g><g fill="#000000" fill-opacity="1"><g transform="translate(94.13233, 221.055904)"><g><path d="M 7.0625 0 L 7.0625 -174.390625 L 43 -174.390625 L 43 0 Z M 7.0625 0 "/></g></g></g><g fill="#000000" fill-opacity="1"><g transform="translate(133.086996, 221.055904)"><g><path d="M 22.609375 0 L 4.640625 -147.75 L 34.921875 -147.75 L 44.8125 -68.421875 L 53.28125 -147.75 L 84.171875 -147.75 L 94.265625 -68.421875 L 102.53125 -147.75 L 135.84375 -147.75 L 116.875 0 L 81.546875 0 L 71.046875 -83.96875 L 61.765625 0 Z M 22.609375 0 "/></g></g></g><g fill="#000000" fill-opacity="1"><g transform="translate(262.466845, 221.055904)"><g><path d="M 7.0625 -147.75 L 42.390625 -147.75 L 42.390625 -131.40625 C 44.140625 -137.1875 47.195312 -141.65625 51.5625 -144.8125 C 55.9375 -147.976562 61.351562 -149.5625 67.8125 -149.5625 L 67.8125 -120.09375 C 62.832031 -120.09375 57.347656 -119.382812 51.359375 -117.96875 C 45.378906 -116.5625 42.390625 -114.914062 42.390625 -113.03125 L 42.390625 0 L 7.0625 0 Z M 7.0625 -147.75 "/></g></g></g><g clip-path="url(#bd10fc27d1)"><g clip-path="url(#5fb125980d)"><path fill="#000000" d="M 327.078125 183.183594 L 368.429688 183.183594 L 368.429688 224.53125 L 327.078125 224.53125 Z M 327.078125 183.183594 " fill-opacity="1" fill-rule="nonzero"/></g></g></svg>